<?xml version="1.0" encoding="utf-8"?>
<!-- Generator: Adobe Illustrator 21.0.0, SVG Export Plug-In . SVG Version: 6.00 Build 0)  -->
<svg version="1.1" id="Layer_1" xmlns="http://www.w3.org/2000/svg" xmlns:xlink="http://www.w3.org/1999/xlink" x="0px" y="0px"
	 viewBox="0 0 286.1 298.8" style="enable-background:new 0 0 286.1 298.8;" xml:space="preserve">
<style type="text/css">
	.st0{fill:url(#SVGID_1_);}
	.st1{fill:#D6D6D6;}
	.st2{fill:url(#SVGID_2_);}
	.st3{fill:#967853;}
	.st4{fill:url(#SVGID_3_);}
	.st5{fill:#231F20;}
	.st6{fill:#EEB47E;}
	.st7{fill:#896948;}
	.st8{fill:#CE9D6E;}
	.st9{fill:url(#SVGID_4_);}
	.st10{fill:#93111D;}
	.st11{fill:url(#SVGID_5_);}
	.st12{fill:url(#SVGID_6_);}
	.st13{fill:url(#SVGID_7_);}
	.st14{fill:url(#SVGID_8_);}
	.st15{fill:url(#SVGID_9_);}
	.st16{fill:url(#SVGID_10_);}
	.st17{fill:#A41724;}
	.st18{fill:url(#SVGID_11_);}
	.st19{fill:url(#SVGID_12_);}
	.st20{fill:#FFFFFF;}
	.st21{fill:#CCCCCC;}
	.st22{fill:url(#SVGID_13_);}
	.st23{fill:none;stroke:#231F20;stroke-width:1.6537;stroke-linecap:round;}
	.st24{fill:url(#SVGID_14_);}
	.st25{fill:#E6E6E6;}
	.st26{fill:#C3996B;}
	.st27{opacity:0.71;fill:#967853;}
	.st28{fill:url(#SVGID_15_);}
</style>
<radialGradient id="SVGID_1_" cx="183.5423" cy="121.836" r="0" gradientTransform="matrix(-1 0 0 1 332.4158 0)" gradientUnits="userSpaceOnUse">
	<stop  offset="0" style="stop-color:#FFFFFF"/>
	<stop  offset="1" style="stop-color:#035877"/>
</radialGradient>
<path class="st0" d="M148.9,121.8"/>
<path class="st1" d="M258,286.4c33.1-22-69.3-46.5-111.8-40.9c-42.5,5.5,7.1,21.3-4.7,22.8c-11.8,1.6-33.1,13.4-13.4,20.5
	C147.8,295.9,224.9,308.5,258,286.4z"/>
<radialGradient id="SVGID_2_" cx="259.2094" cy="175.703" r="79.9409" gradientTransform="matrix(-1 0 0 1 332.4158 0)" gradientUnits="userSpaceOnUse">
	<stop  offset="0" style="stop-color:#FFFFFF"/>
	<stop  offset="1" style="stop-color:#C3996B"/>
</radialGradient>
<path class="st2" d="M131.6,218.2c-4.4,1.1-26.6,14.2-41.4,12.6c-7.4-0.8-47-20.7-67.5-13.8c-20.7,7.1-24.4,31.1-22.1,41
	c2.3,9.9,12.2,34.5,60.2,21.8c25.8-6.8,37.6-29.8,51.1-43.3"/>
<polygon class="st3" points="151.1,231.1 145.8,234 138.3,234.8 143.4,226.2 147.5,227.7 "/>
<radialGradient id="SVGID_3_" cx="16.6338" cy="191.2363" r="102.1245" gradientTransform="matrix(-1 0 0 1 332.4158 0)" gradientUnits="userSpaceOnUse">
	<stop  offset="0" style="stop-color:#FFFFFF"/>
	<stop  offset="1" style="stop-color:#BE1E2D"/>
</radialGradient>
<path class="st4" d="M234.3,205c0,0,1,14.1-4.6,29.8c-5.6,15.7-7.9,29.6-7.9,29.6l-6.7,4.2l-10.5-2.2l-0.3-10.3c0,0-3.7,2.6-11.1,3
	c-7.4,0.4-11.2-0.9-11.2-0.9l-2.9,12.2c0,0-2.6,3-7.8,3.5c-5.2,0.5-9.6-0.7-9.6-0.7s-0.6-20.4-6.9-34.6c-6.3-14.2-4.5-22.3-4.5-22.3
	L234.3,205z"/>
<path class="st5" d="M236.3,269.3c-10.2,2.6-13.8-8.2-13.8-8.2s-2.4,3-8.8,3c-6.4,0-9.5-2-9.5-2s-7.9,7.6-2.1,14.9
	c5.8,7.3,42.9,8.4,46.1,3C251.5,274.7,246.6,266.8,236.3,269.3z"/>
<path class="st5" d="M146.2,272.5c10.5,3.2,14.7-7.8,14.7-7.8s2.4,3.2,9,3.6c6.6,0.4,10-1.5,10-1.5s7.8,8.3,1.3,15.6
	c-6.4,7.3-45,6.3-48.1,0.6C130.1,277.3,135.7,269.3,146.2,272.5z"/>
<path class="st6" d="M129.6,101.9c0.5-7.9,9.8-4.5,14.1-2.4c-0.2-2.5-0.3-5.1-0.1-7.7c1.4-27.1,21.8-48.1,45.6-46.9
	c23.8,1.2,41.9,24.2,40.5,51.3c0,0.3-0.1,0.7-0.1,1c3.8-1.7,14.5-5.7,14.7,3.4c0.2,9.1-11.7,7.1-16.1,6c-5.3,21.9-23.4,37.5-44,36.5
	c-18.9-1-34.1-15.6-39-35.2C140.6,108.8,129,110.3,129.6,101.9z"/>
<ellipse transform="matrix(5.160600e-02 -0.9987 0.9987 5.160600e-02 61.5297 293.0714)" class="st7" cx="185.1" cy="114.1" rx="7.6" ry="11.1"/>
<path class="st8" d="M165.2,50.9c5.1-0.1,9.8,3.5,9.8,3.5s21.7-3.8,39.6,0.9c9.9,9.4,15.8,23.9,15.1,39.8c-3.7-0.2-6.5-1.5-6.5-1.5
	s-5.9,0.6-13-1.3c-7.1-1.9-13.2-4.8-13.2-4.8s-4.2,1.7-12.3,1.5c-8-0.2-12.7-3-12.7-3s-3.7,3.7-11,6.6c-7.3,2.9-11.9,3.5-11.9,3.5
	s-2.4,0.9-5.4,1.6c-0.1-2.2-0.2-4.5-0.1-6.7C144.5,73.8,153,59.1,165.2,50.9z"/>
<radialGradient id="SVGID_4_" cx="40.6181" cy="93.024" r="81.152" gradientTransform="matrix(-1 0 0 1 332.4158 0)" gradientUnits="userSpaceOnUse">
	<stop  offset="0" style="stop-color:#FFFFFF"/>
	<stop  offset="1" style="stop-color:#BE1E2D"/>
</radialGradient>
<path class="st9" d="M221.7,127.5c2.3,0.1,0.2,13.3,2.6,21.2c2.4,7.9,7.1,13.2,7.1,13.2s-1.4-7,1.1-16.5
	c2.4-9.4,12.3-18.7,12.3-18.7l15.2,26c0,0-2.3,4.1-3.5,8.9c-1.5,5.9-2.3,13.1-5,17.3c-5,7.8-18.8,11.4-18.8,11.4l-14.7-31.8
	c0,0-3.6-18-4-19.8C213.6,137.1,219.4,127.5,221.7,127.5z"/>
<path class="st10" d="M228.1,167.2c5.6,7.8,8.1,15.5,9.1,21.7c-2.7,1-4.6,1.5-4.6,1.5l-14.7-31.8c0,0-3.6-18-4-19.8
	c-0.3-1.4,3.6-8.2,6.3-10.5c0.7-0.2,1-0.3,1-0.3S215.7,150,228.1,167.2z"/>
<radialGradient id="SVGID_5_" cx="3.2858" cy="107.8903" r="131.0406" gradientTransform="matrix(-1 0 0 1 332.4158 0)" gradientUnits="userSpaceOnUse">
	<stop  offset="0" style="stop-color:#FFFFFF"/>
	<stop  offset="1" style="stop-color:#BE1E2D"/>
</radialGradient>
<path class="st11" d="M181.7,131.7c28.4,1.3,39.9-2.7,39.9-2.7s-6.1,21.9,5.8,39.4c11.9,17.6,8.4,34.6,8.4,34.6s0.2,16.3-36.2,24
	c-36.5,7.7-48.1-7.7-48.1-7.7s-11.4-13.3-16.9-34.3c-4.4-16.9-3.3-40.9-3.3-49.9c0-20.2,14.1-20.4,14.1-20.4
	S153.3,130.5,181.7,131.7z"/>
<path class="st5" d="M195.7,213.8c23.9-4.7,36-16.4,40.3-21.6c0.7,6.6-0.2,10.9-0.2,10.9s0.2,16.3-36.2,24
	c-36.5,7.7-48.1-7.7-48.1-7.7s-3.8-4.5-8.1-12.3C150.8,210.6,170.9,218.7,195.7,213.8z"/>
<path class="st10" d="M134.6,185c-4.4-16.9-3.3-40.9-3.3-49.9c0-2.7,0.2-5,0.7-7.1c0.1,0,0.2,0,0.3-0.1c6.2-0.9,17.2,17.9,21.5,33
	c5.5,19.6,2.2,37.2,0.4,42.4c-1.8,5.2-16.4-8.6-16.4-8.6C136.6,191.7,135.6,188.4,134.6,185z"/>
<radialGradient id="SVGID_6_" cx="69.6327" cy="149.4548" r="218.2308" gradientTransform="matrix(-1 0 0 1 332.4158 0)" gradientUnits="userSpaceOnUse">
	<stop  offset="0" style="stop-color:#FFFFFF"/>
	<stop  offset="1" style="stop-color:#231F20"/>
</radialGradient>
<path class="st12" d="M268.7,123.2c-0.9-2.9-3.5-3.4-7.3-1.7c-3.8,1.8-9.5-0.7-11.9-0.4c-2.4,0.3-4,2-5.5,5.4
	c-1.5,3.4,3.4,14.3,6.2,19.2c2.8,4.9,7.9,11.7,7.9,11.7s11.5-7.9,13.3-10.2"/>
<g>
	
		<radialGradient id="SVGID_7_" cx="169.0333" cy="215.8573" r="25.3099" gradientTransform="matrix(-0.9994 -3.560000e-02 -3.560000e-02 0.9994 339.9712 10.9894)" gradientUnits="userSpaceOnUse">
		<stop  offset="0" style="stop-color:#FFFFFF"/>
		<stop  offset="1" style="stop-color:#BE1E2D"/>
	</radialGradient>
	<path class="st13" d="M133.6,210.7c2.4,0.4,13.4,1.2,13.4,1.2s-4.1,8.1-10.3,11.1c-3.8,1.8-10.2-1-11.9-1
		c-4.6-0.2-1.9-15.9-1.9-15.9S131.3,210.2,133.6,210.7z"/>
	
		<radialGradient id="SVGID_8_" cx="99.9078" cy="102.8875" r="106.8814" gradientTransform="matrix(-0.9994 -3.560000e-02 -3.560000e-02 0.9994 339.9712 10.9894)" gradientUnits="userSpaceOnUse">
		<stop  offset="0" style="stop-color:#FFFFFF"/>
		<stop  offset="1" style="stop-color:#BE1E2D"/>
	</radialGradient>
	<path class="st14" d="M129.2,158.7c1.5-16.7,0.2-36.8,7.8-37c6.3-0.2,15.2,19.6,17.8,35.1c3.4,20-0.6,37-0.6,37l-31.1-8.4
		C123.2,185.4,127.8,173.6,129.2,158.7z"/>
	
		<radialGradient id="SVGID_9_" cx="179.0164" cy="200.2297" r="198.3217" gradientTransform="matrix(-0.9994 -3.560000e-02 -3.560000e-02 0.9994 339.9712 10.9894)" gradientUnits="userSpaceOnUse">
		<stop  offset="0" style="stop-color:#FFFFFF"/>
		<stop  offset="1" style="stop-color:#231F20"/>
	</radialGradient>
	<path class="st15" d="M156,198.9c-1.4-3.4-0.1-3.9-0.7-6.8c-0.6-2.9-7.5,1.9-15.5-4.4c-8-6.3-15.7-4.4-17.6-2.6
		c-1.9,1.8-3.7,9.7-4.7,10.9c-1,1.2-2.8,6.7-2.8,6.7s1.6,7.1,18.7,10.6c17.1,3.5,22.8-6.1,22.8-6.1S157.4,202.3,156,198.9z"/>
</g>
<radialGradient id="SVGID_10_" cx="92.5249" cy="-15.1761" r="72.5966" gradientTransform="matrix(-1 0 0 1 332.4158 0)" gradientUnits="userSpaceOnUse">
	<stop  offset="0" style="stop-color:#FFFFFF"/>
	<stop  offset="1" style="stop-color:#BE1E2D"/>
</radialGradient>
<path class="st16" d="M155.3,0.1c-19.2,2-41.7,83.1-41.7,83.1l1.1,3.3c0,0,6,1,12-5.2c6-6.2,7-13.3,7-13.3s-0.4,4.4,4.1,5.9
	c4.5,1.5,8.1,0.7,8.1,0.7s16-13.4,37.7-19.1c21.6-5.7,46.3,16,46.3,16s7.2-12.3,0.1-18.4c-5.3-4.6-13.7-6.5-20.4-14
	C191.6,19.3,174.5-1.8,155.3,0.1"/>
<path class="st17" d="M126.2,81.8c-0.1,0-0.1,0.1-0.2,0.1c-0.1,0.1-0.3,0.3-0.4,0.4c0,0-0.1,0.1-0.1,0.1c-0.2,0.1-0.3,0.3-0.5,0.4
	c0,0-0.1,0-0.1,0.1c-0.2,0.1-0.3,0.3-0.5,0.4c0,0,0,0,0,0l-10.6-1.2c0.5-1.7,1.5-5.2,3-9.9c0,0.1,1.2,4.1,4.6,4.8
	c2.8,0.7,7.8-1.7,9-4.2c2.4-5.5,3.9-13.4,3.9-13.4s0.4,8,4.5,10.6c4.1,2.6,8.8,2.9,8.8,2.9l0,0.4c0,0,0,0,0,0
	c-0.9,0.7-1.4,1.1-1.4,1.1s-3.6,0.8-8.1-0.7c-4.5-1.5-4.1-5.9-4.1-5.9s-1,7.1-7,13.3C126.6,81.4,126.4,81.6,126.2,81.8z"/>
<radialGradient id="SVGID_11_" cx="211.9782" cy="90.6346" r="38.7757" gradientTransform="matrix(-1 0 0 1 332.4158 0)" gradientUnits="userSpaceOnUse">
	<stop  offset="0" style="stop-color:#FFFFFF"/>
	<stop  offset="0.1012" style="stop-color:#F9F9F9"/>
	<stop  offset="0.2369" style="stop-color:#E8E8E8"/>
	<stop  offset="0.3922" style="stop-color:#CDCCCC"/>
	<stop  offset="0.5621" style="stop-color:#A6A5A5"/>
	<stop  offset="0.7439" style="stop-color:#757373"/>
	<stop  offset="0.9329" style="stop-color:#3A3637"/>
	<stop  offset="1" style="stop-color:#231F20"/>
</radialGradient>
<circle class="st18" cx="112.3" cy="92.6" r="16.9"/>
<radialGradient id="SVGID_12_" cx="214.0742" cy="93.7615" r="34.4119" gradientTransform="matrix(-1 0 0 1 332.4158 0)" gradientUnits="userSpaceOnUse">
	<stop  offset="0" style="stop-color:#FFFFFF"/>
	<stop  offset="0.5532" style="stop-color:#878585"/>
	<stop  offset="1" style="stop-color:#231F20"/>
</radialGradient>
<path class="st19" d="M95.4,91.8c0.2-4,1.8-7.7,4.3-10.5c-1.6,2.4-2.6,5.4-2.8,8.5c-0.5,9.3,6.7,17.3,16,17.8
	c5.3,0.3,10.1-1.9,13.4-5.6c-3.2,4.8-8.8,7.8-15,7.5C102.1,109,95,101.1,95.4,91.8z"/>
<path class="st20" d="M221.4,99.1c1-6.4-26.8-10.3-26.5-2.5C195.2,104.4,220.4,105.5,221.4,99.1z"/>
<path class="st20" d="M150.9,99.1c-1.1-6.4,26.6-10.7,26.4-2.9C177.2,104.1,152,105.6,150.9,99.1z"/>
<path class="st10" d="M150.3,129.6c0,0-3.5-1.6-3.9-6.6c-0.1-1.3-0.7-5.2-1.2-8.4c0.1,0,0.2,0,0.2,0s7.9,15.8,36.3,17.1
	c28.4,1.3,39.9-2.7,39.9-2.7s-0.5,1.7-0.9,4.6c-1.5,0.9-3,1.9-4.3,3c-3.8,3.2-5.9,7.8-6.1,13.1c-0.1,5.2-8.2,13.6-15.9,21.3
	c-7.7,7.8-7,9.6-12.9,9.6c-2.4,0-10.4-6.7-14.3-13.1c-5.7-9.3-11.4-16.7-11.4-16.7s-4.6-3-5.7-12.2
	C149,129.4,150.3,129.6,150.3,129.6z"/>
<path class="st20" d="M226.5,88.2l-2.7,16.7l-2.1,6.7l-3,4.4c0,0-14.3,11.2-35.7,9.6c-21.4-1.6-28.2-9.6-28.2-9.6l-6-3.4l-0.4-4.6
	l-2-2.5l-2.7-11.5c0,0-1.6-1.4-2.7-1.1c-1.2,0.3,2.4,14.5,2.5,17.6c0.1,3.1,1.3,9.9,1.5,11.8c0.4,4.9,3.9,6.6,3.9,6.6
	s-1.3-0.2-0.1,9c1.2,9.2,5.7,12.2,5.7,12.2s5.6,7.5,11.4,16.7c4,6.4,11.9,13.1,14.3,13.1c5.9,0,5.1-1.9,12.9-9.6
	c7.7-7.8,15.8-16.1,15.9-21.3c0.1-5.2,2.3-9.8,6.1-13.1c3.8-3.2,9.1-5.2,11.4-8.9c2.3-3.6-0.5-5.7,0.9-7.9c1.4-2.2,1.5-4.2,3.4-9.1
	c1.9-5-0.9-20.4-0.9-20.4L226.5,88.2z"/>
<path class="st21" d="M141.8,93c0.8,0.3,1.9,0.9,1.9,0.9s0.7,10.8,2.2,11.5c1.4,0.8,2.7,3,2.7,3s-0.8,2.3,0.4,4.1
	c0.4,0.6,4.5,3.5,7.8,5.5c5.6,3.4,12.3,6.5,25.7,7.5c1.7,0.1,3.3,0.2,4.9,0.1c-1.1,0-2.3-0.1-3.4-0.1c-21.4-1.6-28.2-9.6-28.2-9.6
	l-6-3.4l-0.4-4.6l-2-2.5l-2.7-11.5c0,0-1.6-1.4-2.7-1.1C141.9,92.8,141.8,92.8,141.8,93z M180.8,179.7c0.1,0,0.2,0,0.3,0
	c5.9,0,5.1-1.9,12.9-9.6c7.7-7.8,15.8-16.1,15.9-21.3c0.1-5.2,2.3-9.8,6.1-13.1c3.8-3.2,9.1-5.2,11.4-8.9c2.3-3.6-0.5-5.7,0.9-7.9
	c1.4-2.2,1.5-4.2,3.4-9.1c1.9-5-0.9-20.4-0.9-20.4l-3.4-1.2l-0.1,0.5l2,0.7c0,0,2.8,15.5,0.9,20.4c-1.9,5-2,6.9-3.4,9.1
	c-1.4,2.2,1.4,4.3-0.9,7.9c-2.3,3.6-7.6,5.6-11.4,8.9c-3.8,3.2-5.9,7.8-6.1,13.1c-0.1,5.2-8.2,13.6-15.9,21.3
	C185.4,177.3,185.5,179.4,180.8,179.7z"/>
<path class="st5" d="M189.1,129.2c0,0-1.2,2.7-5,2.6c-3.8-0.1-4.4-3.1-4.4-3.1L189.1,129.2z"/>
<g>
	<path class="st21" d="M197.7,123.9c-7.2,0.5-13.9-3.5-14.2,1.5c-0.2,5,8.4,10.3,15.6,7.4c7.4-3,13.5-12,13.5-12
		S204.9,123.3,197.7,123.9z"/>
	<path class="st21" d="M171.4,121.9c7,1.6,14.3-1.3,13.8,3.7c-0.5,5-9.8,8.9-16.5,4.9c-6.9-4.1-11.6-13.9-11.6-13.9
		S164.3,120.3,171.4,121.9z"/>
</g>
<g>
	<path class="st20" d="M198.4,122c-7.5,0.5-14.5-3.5-14.8,1.5c-0.3,5,8.7,10.3,16.2,7.4c7.7-3,14-12,14-12S205.9,121.5,198.4,122z"
		/>
	<path class="st20" d="M171,120.1c7.3,1.6,14.9-1.3,14.4,3.7c-0.5,5-10.2,8.9-17.2,4.9c-7.2-4.1-12-13.9-12-13.9
		S163.7,118.5,171,120.1z"/>
</g>
<radialGradient id="SVGID_13_" cx="140.6776" cy="110.8203" r="19.5229" gradientTransform="matrix(-1 0 0 1 332.4158 0)" gradientUnits="userSpaceOnUse">
	<stop  offset="0" style="stop-color:#FFFFFF"/>
	<stop  offset="0.1017" style="stop-color:#F6E6D8"/>
	<stop  offset="0.2085" style="stop-color:#EED0B7"/>
	<stop  offset="0.3237" style="stop-color:#E8BF9B"/>
	<stop  offset="0.4482" style="stop-color:#E3B186"/>
	<stop  offset="0.5865" style="stop-color:#E0A777"/>
	<stop  offset="0.7497" style="stop-color:#DEA26F"/>
	<stop  offset="1" style="stop-color:#DDA06C"/>
</radialGradient>
<path class="st22" d="M174.2,112.8c-0.2,4.2,4.6,7.8,10.7,8.2c6.1,0.3,11.2-2.8,11.4-7c0.2-4.2-4.6-7.8-10.7-8.2
	C179.5,105.4,174.4,108.6,174.2,112.8z"/>
<path class="st23" d="M212.4,107.9c0,0-2.5-2.1-5.9-2.3c-3.4-0.2-6.4,1.6-6.4,1.6"/>
<path class="st23" d="M170.1,107.5c0,0-2.6-1.9-6.1-1.8c-3.4,0.1-6.3,2.1-6.3,2.1"/>
<radialGradient id="SVGID_14_" cx="114.3637" cy="77.0218" r="648.5593" gradientTransform="matrix(-1 0 0 1 332.4158 0)" gradientUnits="userSpaceOnUse">
	<stop  offset="0" style="stop-color:#FFFFFF"/>
	<stop  offset="1" style="stop-color:#231F20"/>
</radialGradient>
<path class="st24" d="M210.1,90.8c7.1,1.9,13,1.3,13,1.3s13.2,6.1,19.9-6.4c3.2-5.9-6.6-23.9-23.4-30.3c-18.6-7.1-44.6-2.5-44.6-2.5
	s-8.3-6.6-14.9-1.9c-5.5,3.9-10,11.7-15.3,18.6c-7,9.1-11.6,17.1-12.3,20.2c-2.8,12.1,16.7,4.8,16.7,4.8s4.6-0.6,11.9-3.5
	c7.3-2.9,11-6.6,11-6.6s4.6,2.8,12.7,3c8,0.2,12.3-1.5,12.3-1.5S203.1,89,210.1,90.8z"/>
<path class="st21" d="M224.8,121.1c-2.8,0.4-3.5-0.1-3.5-0.1s2.5-0.7,3.9-1.4c0.6-0.3,1.5-0.8,2.4-1.4c-0.1,0.2-0.2,0.4-0.3,0.6
	c-0.4,0.6-0.5,1.2-0.4,1.8C226.4,120.9,225.7,121,224.8,121.1z"/>
<path class="st21" d="M210.8,140.4c-2.6,0.3-5.9-0.4-5.9-0.4s3.2,0.1,5.4-0.9c2.2-1,3-2,3.6-2.3
	C213.2,137.5,211.5,140.3,210.8,140.4z"/>
<path class="st21" d="M187.5,159.8c0,0,1.6,3.1,8.6,2.1c5.3-0.7,9.9-6.7,11.8-9.5c-1.6,3.3-4.9,7.2-8.6,11.2c-0.3,0-0.6,0-0.9,0
	C188.3,163.9,187.5,159.8,187.5,159.8z"/>
<path class="st21" d="M158.2,133c0,0-0.4-0.1-1.1-0.2C158,133,158.2,133,158.2,133z M148.3,130.4c0.1,0,0.2,0.1,0.3,0.1
	c2.4,1,6.6,1.9,8.5,2.2c-0.9-0.3-2.4-0.9-5.1-2.2c-1.2-0.6-2.3-1.2-3.2-1.8C148.7,128.8,148.4,129.1,148.3,130.4z"/>
<path class="st21" d="M159.9,152c3.2,0.4,6.7,0.8,6.7,0.8s-2.9,0.9-5.6,1.5c-1.6,0.4-3.2-0.5-3.5-0.3c-1.3-1.9-2.3-3.2-2.7-3.7
	C155.3,150.3,157.4,151.6,159.9,152z"/>
<path class="st21" d="M168.4,166.7c2.6,0.1,4.6-0.8,4.6-0.8s-0.9,1.3-4,1.7c-0.9,0.1-1.6,0.2-2.2,0.2c-0.3-0.4-0.6-0.9-0.9-1.3
	c-0.1-0.2-0.3-0.4-0.4-0.6C166.1,166.3,167.1,166.7,168.4,166.7z"/>
<path class="st25" d="M195.6,79.2c0.8,2.2,1.2,4.6,0.9,7c0.3-0.1,0.4-0.1,0.4-0.1s0.4,0.2,1.1,0.5C197.9,83.9,197,81.4,195.6,79.2z
	 M169.3,80.1c1.1,1.4,1.8,3.1,2.1,4.9c0.3-0.3,0.5-0.5,0.5-0.5s0.2,0.1,0.6,0.3C171.9,83,170.8,81.4,169.3,80.1z M145.6,90.3
	c1,1.4,1.8,3,2.1,4.8c0.4-0.1,0.8-0.3,1-0.3C148,93.1,146.9,91.5,145.6,90.3z M224.1,92.6c-1.6-1.8-2.8-3.9-3.3-6.2
	c0.1,2,0.5,4,1.4,5.8c0.5,0,0.8-0.1,0.8-0.1S223.5,92.3,224.1,92.6z"/>
<path class="st25" d="M132.8,94.6c3.1,5,16.3,0,16.3,0s4.6-0.6,11.9-3.5c7.3-2.9,11-6.6,11-6.6s4.6,2.8,12.7,3
	c8,0.2,12.3-1.5,12.3-1.5s-8.1,0.4-14.1,0.1c-6-0.3-11.1-2.9-11.1-2.9s-14.7,8.1-21.8,10.4C143.6,95.6,134.8,94.8,132.8,94.6z
	 M196.7,85.1c0,0-0.1,1.1,2.4,2.3c2.5,1.2,7.5,2.5,11,3.5c7.1,1.9,13,1.3,13,1.3s12.5,5.8,19.4-5.5l-0.1-0.1c0,0-1.8,3.4-9.3,5
	c-7.5,1.6-10.4-1-10.4-1s-4.4,0.4-13.1-1C200.9,88.2,196.7,85.1,196.7,85.1z"/>
<path class="st20" d="M182,222.3c0.7,5.1,5.4,8.7,10.6,8l9-1.2c5.1-0.7,8.7-5.4,8-10.6c-0.7-5.1-5.4-8.7-10.6-8l-9,1.2
	C184.9,212.4,181.3,217.2,182,222.3z M186.7,221.6c-0.5-3.4,1.9-6.5,5.3-6.9l5.9-0.8c3.4-0.5,6.5,1.9,6.9,5.3
	c0.5,3.4-1.9,6.5-5.3,6.9l-5.9,0.8C190.3,227.4,187.2,225,186.7,221.6z"/>
<path class="st10" d="M176.9,255.1c0.9,1.5,2.6,2.8,4.9,3.7l0.1-0.6C179.7,257.4,178,256.4,176.9,255.1z M201.2,257.4l0,0.2
	c2-0.7,3-1.4,3-1.4l0,0.6c2.2-1.2,3.8-2.7,4.5-4.4C207.5,254.4,204.8,256.1,201.2,257.4z"/>
<path class="st26" d="M140.1,217.8c1.8,0.5,2.8,2,5.6,4.1c2.8,2.2,5.4,9.1,5.4,9.1s-5.6-4.8-6.9-1.3c-1.3,3.5-5.9,5-5.9,5
	s2.6-3.7,2.4-8.5c-0.2-4.8-2.4-6.9-2.4-6.9S138.2,217.3,140.1,217.8z"/>
<path class="st20" d="M98.7,124.7c2.1,6.6,2.6,6-4.5,7.3"/>
<circle class="st20" cx="245.4" cy="68.9" r="1.9"/>
<circle class="st20" cx="219.8" cy="267.4" r="1.5"/>
<circle class="st20" cx="190.9" cy="210.8" r="3.3"/>
<path class="st27" d="M86.3,233.9c-0.4,0.1-0.7,0.1-1.1,0.2c-1.6,0.2-4.3,0.8-6.1,1c-9.1,0.8-19.5-1.2-19.1-1.4
	c0.4-0.1,14.8,1.6,21.5,0c0.3,0.1,0.5,0.1,0.8,0.1C83.5,233.9,84.9,234,86.3,233.9z"/>
<radialGradient id="SVGID_15_" cx="54.6804" cy="116.6348" r="10.0683" gradientTransform="matrix(-0.9982 6.053349e-02 6.053349e-02 0.9982 324.2439 -3.0674)" gradientUnits="userSpaceOnUse">
	<stop  offset="0" style="stop-color:#FFFFFF"/>
	<stop  offset="1" style="stop-color:#BE1E2D"/>
</radialGradient>
<path class="st28" d="M270.9,145.8c0,0,16.1-4.8,15.1-11.4c-1-6.6-5.5-3.3-5.5-3.3s2-1.6,0.8-5.1c-1.2-3.5-12.9-3.4-12.9-3.4
	L270.9,145.8z"/>
</svg>
